<svg fill="none" height="80" viewBox="0 0 80 80" width="80" xmlns="http://www.w3.org/2000/svg" xmlns:xlink="http://www.w3.org/1999/xlink"><mask id="a" height="80" maskUnits="userSpaceOnUse" width="80" x="0" y="0"><path d="m0 0h80v80h-80z" fill="#d9d9d9"/></mask><g mask="url(#a)"><path d="m40 50.9616 10.9616-10.9616-10.9616-10.9616-2.2949 2.2949 7 7h-16.3718v3.3334h16.3718l-7 7zm.0112 19.0384c-4.1485 0-8.0488-.7872-11.7009-2.3616-3.652-1.5744-6.8288-3.7112-9.5304-6.4101-2.7015-2.699-4.8402-5.8729-6.4161-9.5215s-2.3638-7.5472-2.3638-11.6956c0-4.1485.7872-8.0488 2.3616-11.7009 1.5744-3.652 3.7112-6.8288 6.4101-9.5304 2.699-2.7015 5.8729-4.8402 9.5215-6.4161s7.5472-2.3638 11.6956-2.3638c4.1485 0 8.0488.7872 11.7009 2.3616 3.652 1.5744 6.8288 3.7111 9.5304 6.4101 2.7015 2.699 4.8402 5.8729 6.4161 9.5215s2.3638 7.5472 2.3638 11.6956c0 4.1485-.7872 8.0488-2.3616 11.7009-1.5744 3.652-3.7112 6.8288-6.4101 9.5304-2.699 2.7015-5.8729 4.8402-9.5215 6.4161s-7.5472 2.3638-11.6956 2.3638zm-.0112-3.3333c7.4444 0 13.75-2.5834 18.9167-7.75 5.1666-5.1667 7.75-11.4723 7.75-18.9167s-2.5834-13.75-7.75-18.9167c-5.1667-5.1666-11.4723-7.75-18.9167-7.75s-13.75 2.5834-18.9167 7.75c-5.1666 5.1667-7.75 11.4723-7.75 18.9167s2.5834 13.75 7.75 18.9167c5.1667 5.1666 11.4723 7.75 18.9167 7.75z" fill="#fff"/></g></svg>