<svg fill="none" height="132" viewBox="0 0 132 132" width="132" xmlns="http://www.w3.org/2000/svg"><g fill="#fff"><path d="m118.662 74.0435 3.721-.7289.793-4.458-3.242-1.9647.255-1.4335 10.509 6.4252-.227 1.2759-12.07 2.349zm5.056-.9277 3.626-.6486c.09-.0164.251-.0416.485-.0754.233-.0339.472-.0668.716-.0988.253-.0196.446-.0391.579-.0584-.31-.1426-.614-.2894-.912-.4405-.29-.1388-.518-.2557-.686-.3508l-3.174-1.8876z"/><path d="m116.175 85.9327 9.866 5.7603-.721 1.2468-8.76-5.1149-2.497 4.3223-1.106-.6454z"/><path d="m112.005 112.21c-1.135.971-2.151 1.455-3.049 1.451-.897-.003-1.691-.412-2.381-1.226-.406-.48-.68-1.026-.819-1.636-.141-.596-.067-1.242.223-1.939.282-.691.856-1.407 1.723-2.15l.997-.853-2.875-3.394 1.093-.936 7.385 8.716zm-.699-1.023 1.106-.947-2.917-3.443-.875.749c-.827.708-1.329 1.369-1.506 1.985-.178.615.006 1.244.55 1.887.476.562 1.014.825 1.613.79.591-.029 1.267-.369 2.029-1.021z"/><path d="m84.4074 116.536 1.353-.493 1.807 5.012 5.5023-2.004-1.8071-5.012 1.353-.493 3.8746 10.747-1.353.493-1.6388-4.546-5.5023 2.005 1.6389 4.545-1.353.493z"/><path d="m66.5127 119.866 1.3215 3.557 4.5275.07 1.4141-3.514 1.4558.022-4.6396 11.402-1.2959-.02-4.2712-11.54zm1.7338 4.844 1.2268 3.475c.0306.086.0816.241.1528.466.0712.226.1424.456.2134.692.0602.246.1107.434.1514.562.0904-.329.186-.653.287-.971.09-.308.1685-.553.2352-.733l1.349-3.435z"/><path d="m50.3588 129.983-3.0363-1.198c-1.3197-.521-2.2443-1.115-2.7738-1.782-.5295-.668-.6061-1.484-.2298-2.447.2443-.626.6216-1.08 1.1318-1.36.5064-.27 1.1103-.336 1.8117-.197l.0291-.074c-.4155-.256-.765-.549-1.0485-.878-.2934-.334-.4765-.716-.5491-1.146s-.0022-.918.2111-1.465c.3763-.963.9996-1.577 1.87-1.842.8605-.268 1.8613-.177 3.0024.273l3.7358 1.474zm.4293-5.06-1.9647-.775c-.9029-.356-1.5793-.457-2.0292-.302-.4637.162-.808.53-1.033 1.107-.2288.586-.1834 1.085.1364 1.498.306.419.9104.806 1.8134 1.163l1.7563.692zm.4364-1.118 1.507-3.86-2.1433-.845c-.9426-.372-1.6693-.447-2.1799-.224-.5107.223-.8824.632-1.1151 1.228-.2173.557-.1983 1.08.0568 1.571.2412.496.8531.938 1.8354 1.326z"/><path d="m25.593 109.563c.7977-.875 1.6438-1.502 2.5383-1.882.8796-.379 1.7749-.482 2.686-.31.9033.165 1.7746.634 2.6141 1.407.8708.803 1.4312 1.652 1.6812 2.55.2422.89.2062 1.792-.1078 2.707-.314.914-.8698 1.809-1.6675 2.684-.7833.859-1.6107 1.482-2.4824 1.868-.8789.394-1.77.509-2.6732.344-.9111-.172-1.806-.663-2.6847-1.473-.8395-.773-1.3803-1.605-1.6224-2.495-.2494-.882-.2209-1.784.0852-2.706.2912-.921.8356-1.819 1.6332-2.694zm6.6371 6.114c.9702-1.064 1.5119-2.109 1.6252-3.136.1062-1.019-.3154-1.966-1.2647-2.84-.9493-.875-1.9203-1.211-2.9129-1.009-1.0077.203-1.9966.837-2.9667 1.901s-1.5086 2.098-1.6154 3.102c-.114 1.012.3036 1.955 1.2529 2.829.9572.882 1.936 1.225 2.9365 1.03.9933-.187 1.975-.813 2.9451-1.877z"/><path d="m18.6496 91.0084.7319 1.4587-3.0679 4.9457 5.8015.503.6816 1.3586-7.0092-.6979-3.2877 5.6495-.7175-1.43 2.7402-4.5289-5.25864-.4912-.68162-1.3586 6.43776.7006z"/><path d="m8.96609 74.7696 1.11691-.1348.3928 3.2891 3.2809-.3959.1324 1.1093-3.2808.3959.3927 3.2892-1.11686.1347-.39279-3.2891-3.28864.3969-.13247-1.1093 3.28864-.3969z"/><path d="m13.683 55.462-3.75629.514-1.04579 4.4056 3.12438 2.148-.3363 1.4167-10.12455-7.0192.29933-1.261 12.18282-1.6518zm-5.10076.6358-3.6563.4393c-.09037.0112-.25308.027-.48815.0474s-.47532.0396-.72076.0575c-.25335.005-.44718.0134-.5815.025.30183.1602.59725.3243.88625.4923.28109.1552.50241.2851.66396.3896l3.06135 2.0671z"/><path d="m16.8758 43.6281-9.50915-6.3312.79228-1.2024 8.44367 5.6218 2.7466-4.1685 1.0654.7093z"/><path d="m22.4401 17.7294c1.1891-.9033 2.2317-1.327 3.1279-1.271.8961.056 1.6646.5103 2.3056 1.3629.3782.503.6192 1.0633.7232 1.6809.1061.6026-.0059 1.2435-.3359 1.9229-.3215.6729-.9367 1.3545-1.8455 2.0449l-1.0447.7937 2.6728 3.5553-1.1467.8711-6.8647-9.1314zm.6384 1.0622-1.1594.8808 2.7112 3.6065.9174-.6969c.8663-.6581 1.4061-1.2892 1.6193-1.8931.2131-.604.0665-1.2428-.4398-1.9164-.4423-.5883-.9635-.8822-1.5636-.8817-.5917-.006-1.2867.2943-2.0851.9008z"/><path d="m50.3352 14.9385-1.3804.4101-1.5029-5.1117-5.6135 1.6678 1.5029 5.1116-1.3804.4101-3.2224-10.96008 1.3804-.4101 1.363 4.63578 5.6135-1.66775-1.363-4.63578 1.3804-.41011z"/><path d="m68.3626 12.6401-1.1008-3.63213-4.5144-.35075-1.627 3.42028-1.4516-.1128 5.3302-11.092462 1.2921.100392 3.555 11.78277zm-1.4333-4.94183-1.0112-3.54498c-.0253-.08756-.0666-.2459-.1239-.47502-.0573-.22913-.1141-.46357-.1706-.70333-.045-.24957-.0838-.43982-.1166-.57075-.1104.32309-.2257.64044-.346.95206-.1088.30181-.202.54064-.2797.71648l-1.5572 3.34544z"/><path d="m84.8992 3.37443 2.9591 1.37751c1.2862.59872 2.1736 1.24715 2.6623 1.94529s.5166 1.51707.0837 2.45681c-.2812.61035-.6847 1.04016-1.2106 1.28956-.5215.2396-1.1281.269-1.8199.0882l-.0335.0726c.3995.2801.7309.5932.9942.9394.273.3506.4329.7427.4798 1.1763s-.0524.9169-.2979 1.4497c-.4329.9398-1.0916 1.5156-1.9761 1.7274-.8747.2164-1.8682.0657-2.9802-.452l-3.6409-1.6949zm-.7297 5.02548 1.9147.89133c.88.40965 1.5491.55053 2.0073.42263.4724-.13308.838-.48058 1.0969-1.04249.2633-.57159.2477-1.07302-.0469-1.50429-.2804-.43646-.8607-.85952-1.7407-1.26917l-1.7116-.79679zm-.5021 1.0899-1.7339 3.76379 2.0888.9724c.9186.4276 1.6394.5455 2.1624.3536.5229-.1919.9183-.5785 1.1861-1.1597.2499-.5426.2622-1.0663.0368-1.5713-.2113-.5101-.7956-.988-1.7529-1.4337z"/><path d="m108.759 25.4192c-.851.8241-1.734 1.398-2.65 1.7217-.901.324-1.801.372-2.7.1438-.891-.2204-1.732-.7424-2.522-1.566-.82-.8544-1.3268-1.7372-1.5209-2.6483-.1867-.9035-.0952-1.8019.2747-2.6952.3702-.8933.9802-1.752 1.8302-2.5761.835-.8092 1.699-1.3797 2.593-1.7114.901-.3391 1.798-.3984 2.689-.178.899.2281 1.762.7732 2.589 1.6353.79.8237 1.278 1.6872 1.465 2.5906.194.896.11 1.7946-.252 2.6956-.348.9013-.946 1.764-1.796 2.588zm-6.247-6.5121c-1.034 1.0023-1.64 2.0124-1.816 3.0302-.169 1.0104.193 1.9814 1.087 2.9128.893.9314 1.842 1.3268 2.845 1.1861 1.018-.1403 2.044-.7116 3.078-1.7139 1.034-1.0022 1.636-2.001 1.804-2.9963.176-1.0027-.182-1.9698-1.076-2.9012-.901-.9391-1.856-1.3422-2.867-1.2093-1.003.1255-2.022.6894-3.055 1.6916z"/><path d="m114.518 44.2144-.644-1.4995 3.357-4.7534-5.763-.8478-.6-1.3966 6.957 1.1143 3.617-5.4424.632 1.4701-3.005 4.3565 5.221.8036.6 1.3967-6.385-1.083z"/><path d="m123.278 61.2298-1.123.0654-.191-3.307-3.299.1922-.064-1.1154 3.299-.1921-.191-3.307 1.123-.0655.191 3.3071 3.307-.1927.064 1.1154-3.307.1926z"/></g></svg>