<svg width="2591" height="155" viewBox="0 0 2591 155" fill="none" xmlns="http://www.w3.org/2000/svg">
<g clip-path="url(#clip0_542_134)">
<path d="M260.478 225.8C259.411 229.267 258.878 232.733 258.878 236.2C258.878 239.133 259.278 241.667 260.078 243.8C260.878 245.667 261.678 247.267 262.478 248.6C263.545 249.667 264.211 250.467 264.478 251C267.145 253.667 268.478 256.333 268.478 259C268.478 259.533 268.211 260.867 267.678 263C266.611 266.733 264.211 269.4 260.478 271C257.011 272.333 251.545 273 244.078 273H149.278C143.678 273 139.278 272.067 136.078 270.2C133.145 268.333 131.678 265.8 131.678 262.6C131.678 261 132.078 259.267 132.878 257.4C133.678 255.267 134.745 253.667 136.078 252.6C137.678 251.267 139.811 249.8 142.478 248.2C146.745 245.8 150.211 243.133 152.878 240.2C155.545 237.267 157.811 232.467 159.678 225.8L170.078 191.4H107.678L96.8777 214.2C92.3447 224.067 90.0777 231.8 90.0777 237.4C90.0777 240.6 90.6107 243.267 91.6777 245.4C92.7447 247.267 94.3447 249.267 96.4777 251.4C98.3447 253.533 99.5447 255.4 100.078 257C100.878 258.333 101.011 260.2 100.478 262.6C99.4107 266.6 97.1447 269.4 93.6777 271C90.4777 272.333 85.2777 273 78.0777 273H18.4777C12.3447 273 7.67772 271.933 4.47772 269.8C1.27772 267.4 -0.322266 264.333 -0.322266 260.6C-0.322266 256.333 1.27772 253 4.47772 250.6C7.41072 247.933 11.9447 245.133 18.0777 242.2C26.0777 238.2 32.4777 234.333 37.2777 230.6C42.0777 226.6 46.2107 221.133 49.6777 214.2L120.878 66.5996C131.811 43.6662 144.611 27.1329 159.278 16.9996C174.211 6.59962 193.811 1.39962 218.078 1.39962C245.278 1.39962 266.345 6.99962 281.278 18.1996C296.211 29.1329 303.678 44.4663 303.678 64.1996C303.678 72.4663 302.345 80.9996 299.678 89.7996L260.478 225.8ZM182.078 151.4L203.278 80.9996C204.345 77.7996 204.878 74.4663 204.878 70.9996C204.878 65.9329 203.411 62.1996 200.478 59.7996C197.811 57.1329 193.945 55.7996 188.878 55.7996C182.478 55.7996 177.011 57.6662 172.478 61.3996C167.945 65.1329 163.411 71.7996 158.878 81.3996L126.078 151.4H182.078ZM520.669 169.8C528.135 169.8 533.735 171.4 537.469 174.6C541.469 177.533 543.469 181.8 543.469 187.4C543.469 189.8 543.069 192.467 542.269 195.4L529.069 242.2C525.602 253.667 520.669 261.667 514.269 266.2C508.135 270.733 498.935 273 486.669 273H298.669C293.069 273 288.802 272.067 285.868 270.2C282.668 268.333 281.068 265.8 281.068 262.6C281.068 261 281.468 259.267 282.268 257.4C283.068 255.267 284.402 253.533 286.268 252.2C288.135 250.6 290.135 249.133 292.269 247.8C296.535 245.133 300.002 242.467 302.669 239.8C305.335 236.867 307.602 232.2 309.469 225.8L358.269 53.3996C359.335 49.9329 359.869 46.5996 359.869 43.3996C359.869 40.4663 359.335 38.0663 358.269 36.1996C357.469 34.0663 356.269 31.6663 354.669 28.9996C352.269 25.5329 351.069 22.7329 351.069 20.5996C351.069 19.7996 351.335 18.3329 351.869 16.1996C352.935 12.7329 355.202 10.3329 358.669 8.99962C362.402 7.39962 368.002 6.59963 375.469 6.59963H469.469C475.069 6.59963 479.335 7.53296 482.269 9.39961C485.469 10.9996 487.069 13.3996 487.069 16.5996C487.069 17.9329 486.669 19.6663 485.869 21.7996C485.069 23.6663 483.869 25.3996 482.269 26.9996C480.935 28.3329 479.602 29.3996 478.269 30.1996C477.202 30.7329 476.402 31.2663 475.869 31.7996C471.602 34.1996 468.135 36.8663 465.469 39.7996C462.802 42.7329 460.535 47.2663 458.669 53.3996L407.069 234.6H431.869C438.002 234.6 443.202 233.533 447.469 231.4C452.002 229.267 456.669 225.267 461.469 219.4L489.069 186.6C494.135 180.733 498.935 176.467 503.469 173.8C508.269 171.133 514.002 169.8 520.669 169.8ZM767.616 6.59963C795.882 6.59963 817.616 12.7329 832.816 24.9996C848.282 37.2663 856.016 53.5329 856.016 73.7996C856.016 81.7996 854.816 90.1996 852.416 98.9996C844.949 125.667 830.149 145.4 808.016 158.2C786.149 171 758.416 177.4 724.816 177.4H683.616L670.016 225.8C669.482 227.4 669.216 229.533 669.216 232.2C669.216 235.933 670.016 239 671.616 241.4C673.482 243.8 676.149 246.6 679.616 249.8C682.549 252.467 684.549 254.467 685.616 255.8C686.682 257.133 687.216 258.733 687.216 260.6C687.216 265.133 685.082 268.333 680.816 270.2C676.549 272.067 670.282 273 662.016 273H561.616C554.682 273 549.482 271.8 546.016 269.4C542.549 266.733 541.349 263.133 542.416 258.6C542.949 256.2 544.016 254.333 545.616 253C546.949 251.4 549.082 249.667 552.016 247.8C556.549 245.133 560.149 242.333 562.816 239.4C565.482 236.467 567.616 231.933 569.216 225.8L618.016 53.3996C619.082 49.9329 619.616 46.5996 619.616 43.3996C619.616 40.4663 619.082 38.0663 618.016 36.1996C617.216 34.0663 616.016 31.6663 614.416 28.9996C612.016 25.5329 610.816 22.7329 610.816 20.5996C610.816 19.7996 611.082 18.3329 611.616 16.1996C612.682 12.7329 614.949 10.3329 618.416 8.99962C622.149 7.39962 627.749 6.59963 635.216 6.59963H767.616ZM757.216 91.7996C760.149 81.9329 761.616 73.2663 761.616 65.7996C761.616 50.3329 754.416 42.5996 740.016 42.5996H722.016L693.616 141.4H711.216C722.416 141.4 731.482 137.933 738.416 131C745.616 123.8 751.882 110.733 757.216 91.7996ZM1174.66 6.59963C1180.26 6.59963 1184.53 7.53296 1187.46 9.39961C1190.66 11.2663 1192.26 13.6663 1192.26 16.5996C1192.26 17.9329 1191.86 19.6663 1191.06 21.7996C1190.26 23.6663 1189.06 25.3996 1187.46 26.9996C1186.13 28.3329 1184.8 29.3996 1183.46 30.1996C1182.4 30.7329 1181.6 31.2663 1181.06 31.7996C1176.8 34.1996 1173.33 36.8663 1170.66 39.7996C1168 42.7329 1165.73 47.2663 1163.86 53.3996L1114.66 225.8C1113.6 229.267 1113.06 232.6 1113.06 235.8C1113.06 239 1113.46 241.533 1114.26 243.4C1115.33 245.267 1116.8 247.667 1118.66 250.6C1118.93 250.867 1119.6 251.933 1120.66 253.8C1122 255.4 1122.66 257.133 1122.66 259C1122.66 259.533 1122.4 260.867 1121.86 263C1120.53 266.733 1118 269.4 1114.26 271C1110.53 272.333 1104.93 273 1097.46 273H1003.46C997.863 273 993.463 272.067 990.263 270.2C987.329 268.333 985.863 265.8 985.863 262.6C985.863 261 986.263 259.267 987.063 257.4C988.129 255.267 989.596 253.533 991.463 252.2C993.329 250.6 995.196 249.267 997.063 248.2C1001.33 245.8 1004.8 243.133 1007.46 240.2C1010.13 237 1012.4 232.2 1014.26 225.8L1033.46 159H962.663L943.463 225.8C942.396 229.267 941.863 232.6 941.863 235.8C941.863 239 942.263 241.533 943.063 243.4C944.129 245.267 945.596 247.667 947.463 250.6C947.729 250.867 948.396 251.933 949.463 253.8C950.796 255.4 951.463 257.133 951.463 259C951.463 259.533 951.196 260.867 950.663 263C949.329 266.733 946.796 269.4 943.063 271C939.329 272.333 933.729 273 926.263 273H832.263C826.663 273 822.396 272.067 819.462 270.2C816.262 268.333 814.662 265.8 814.662 262.6C814.662 261 815.062 259.267 815.862 257.4C816.929 255.267 818.396 253.533 820.262 252.2C822.129 250.6 823.996 249.267 825.863 248.2C830.129 245.8 833.596 243.133 836.263 240.2C838.929 237 841.196 232.2 843.063 225.8L892.263 53.3996C893.329 49.9329 893.863 46.5996 893.863 43.3996C893.863 40.4663 893.329 38.0663 892.263 36.1996C891.463 34.0663 890.263 31.6663 888.663 28.9996C887.596 27.6663 886.663 26.3329 885.863 24.9996C885.063 23.3996 884.663 21.7996 884.663 20.1996C884.663 19.6663 884.929 18.3329 885.463 16.1996C886.529 12.7329 888.929 10.3329 892.663 8.99962C896.396 7.39962 901.996 6.59963 909.463 6.59963H1003.46C1009.06 6.59963 1013.33 7.53296 1016.26 9.39961C1019.46 11.2663 1021.06 13.6663 1021.06 16.5996C1021.06 17.9329 1020.66 19.6663 1019.86 21.7996C1019.06 23.6663 1017.86 25.3996 1016.26 26.9996C1014.93 28.3329 1013.6 29.3996 1012.26 30.1996C1011.2 30.7329 1010.4 31.2663 1009.86 31.7996C1005.6 34.1996 1002.13 36.8663 999.463 39.7996C996.796 42.7329 994.529 47.2663 992.663 53.3996L973.863 119H1044.66L1063.46 53.3996C1064.53 49.9329 1065.06 46.5996 1065.06 43.3996C1065.06 40.4663 1064.53 38.0663 1063.46 36.1996C1062.66 34.0663 1061.46 31.6663 1059.86 28.9996C1058.8 27.6663 1057.86 26.3329 1057.06 24.9996C1056.26 23.3996 1055.86 21.7996 1055.86 20.1996C1055.86 19.6663 1056.13 18.3329 1056.66 16.1996C1057.73 12.7329 1060.13 10.3329 1063.86 8.99962C1067.6 7.39962 1073.2 6.59963 1080.66 6.59963H1174.66ZM1403.06 225.8C1401.99 229.267 1401.46 232.733 1401.46 236.2C1401.46 239.133 1401.86 241.667 1402.66 243.8C1403.46 245.667 1404.26 247.267 1405.06 248.6C1406.12 249.667 1406.79 250.467 1407.06 251C1409.72 253.667 1411.06 256.333 1411.06 259C1411.06 259.533 1410.79 260.867 1410.26 263C1409.19 266.733 1406.79 269.4 1403.06 271C1399.59 272.333 1394.12 273 1386.66 273H1291.86C1286.26 273 1281.86 272.067 1278.66 270.2C1275.72 268.333 1274.26 265.8 1274.26 262.6C1274.26 261 1274.66 259.267 1275.46 257.4C1276.26 255.267 1277.32 253.667 1278.66 252.6C1280.26 251.267 1282.39 249.8 1285.06 248.2C1289.32 245.8 1292.79 243.133 1295.46 240.2C1298.12 237.267 1300.39 232.467 1302.26 225.8L1312.66 191.4H1250.26L1239.46 214.2C1234.92 224.067 1232.66 231.8 1232.66 237.4C1232.66 240.6 1233.19 243.267 1234.26 245.4C1235.32 247.267 1236.92 249.267 1239.06 251.4C1240.92 253.533 1242.12 255.4 1242.66 257C1243.46 258.333 1243.59 260.2 1243.06 262.6C1241.99 266.6 1239.72 269.4 1236.26 271C1233.06 272.333 1227.86 273 1220.66 273H1161.06C1154.92 273 1150.26 271.933 1147.06 269.8C1143.86 267.4 1142.26 264.333 1142.26 260.6C1142.26 256.333 1143.86 253 1147.06 250.6C1149.99 247.933 1154.52 245.133 1160.66 242.2C1168.66 238.2 1175.06 234.333 1179.86 230.6C1184.66 226.6 1188.79 221.133 1192.26 214.2L1263.46 66.5996C1274.39 43.6662 1287.19 27.1329 1301.86 16.9996C1316.79 6.59962 1336.39 1.39962 1360.66 1.39962C1387.86 1.39962 1408.92 6.99962 1423.86 18.1996C1438.79 29.1329 1446.26 44.4663 1446.26 64.1996C1446.26 72.4663 1444.92 80.9996 1442.26 89.7996L1403.06 225.8ZM1324.66 151.4L1345.86 80.9996C1346.92 77.7996 1347.46 74.4663 1347.46 70.9996C1347.46 65.9329 1345.99 62.1996 1343.06 59.7996C1340.39 57.1329 1336.52 55.7996 1331.46 55.7996C1325.06 55.7996 1319.59 57.6662 1315.06 61.3996C1310.52 65.1329 1305.99 71.7996 1301.46 81.3996L1268.66 151.4H1324.66ZM1660.85 6.59963C1678.98 6.59963 1694.71 9.39962 1708.05 14.9996C1721.65 20.3329 1731.91 27.7996 1738.85 37.3996C1746.05 46.7329 1749.65 57.5329 1749.65 69.7996C1749.65 76.7329 1748.71 83.1329 1746.85 88.9996C1739.11 115.933 1716.85 133 1680.05 140.2C1692.85 143.933 1702.98 150.2 1710.45 159C1717.91 167.533 1721.65 178.2 1721.65 191C1721.65 196.867 1720.58 203.8 1718.45 211.8C1712.58 232.6 1700.71 248.067 1682.85 258.2C1665.25 268.067 1640.18 273 1607.65 273H1441.25C1435.65 273 1431.38 272.067 1428.45 270.2C1425.25 268.333 1423.65 265.8 1423.65 262.6C1423.65 261 1424.05 259.267 1424.85 257.4C1425.91 254.467 1427.65 252.2 1430.05 250.6C1432.45 249 1433.91 248.067 1434.45 247.8C1438.71 245.133 1442.18 242.467 1444.85 239.8C1447.51 236.867 1449.78 232.2 1451.65 225.8L1500.45 53.3996C1501.51 49.9329 1502.05 46.5996 1502.05 43.3996C1502.05 40.4663 1501.51 38.0663 1500.45 36.1996C1499.65 34.0663 1498.45 31.6663 1496.85 28.9996C1494.45 25.5329 1493.25 22.7329 1493.25 20.5996C1493.25 19.7996 1493.51 18.3329 1494.05 16.1996C1495.11 12.7329 1497.38 10.3329 1500.85 8.99962C1504.58 7.39962 1510.18 6.59963 1517.65 6.59963H1660.85ZM1642.85 79.7996C1644.71 73.9329 1645.65 68.4663 1645.65 63.3996C1645.65 49.5329 1637.78 42.5996 1622.05 42.5996H1604.05L1582.85 117.4H1600.45C1611.65 117.4 1620.45 114.733 1626.85 109.4C1633.51 103.8 1638.85 93.9329 1642.85 79.7996ZM1613.65 197.4C1615.51 191 1616.45 185.133 1616.45 179.8C1616.45 165.4 1608.18 158.2 1591.65 158.2H1571.65L1548.85 237H1569.25C1580.71 237 1589.91 234.2 1596.85 228.6C1603.78 222.733 1609.38 212.333 1613.65 197.4ZM1933.14 0.599609C1966.74 0.599609 1993.01 8.59961 2011.94 24.5996C2030.88 40.3329 2040.34 63.1329 2040.34 92.9996C2040.34 107.133 2038.21 122.333 2033.94 138.6C2025.94 168.467 2013.54 193.8 1996.74 214.6C1979.94 235.4 1959.94 251.133 1936.74 261.8C1913.54 272.467 1888.34 277.8 1861.14 277.8C1827.81 277.8 1801.68 269.933 1782.74 254.2C1763.81 238.2 1754.34 215.267 1754.34 185.4C1754.34 171.8 1756.61 156.2 1761.14 138.6C1768.88 109 1781.01 83.9329 1797.54 63.3996C1814.34 42.5996 1834.21 26.9996 1857.14 16.5996C1880.34 5.93294 1905.68 0.599609 1933.14 0.599609ZM1925.94 39.7996C1917.94 39.7996 1910.74 42.9996 1904.34 49.3996C1897.94 55.7996 1891.54 66.3329 1885.14 80.9996C1879.01 95.3996 1872.34 115.533 1865.14 141.4C1854.48 178.733 1849.14 204.467 1849.14 218.6C1849.14 226.867 1850.61 232.867 1853.54 236.6C1856.48 240.333 1861.14 242.2 1867.54 242.2C1875.54 242.2 1882.74 239 1889.14 232.6C1895.54 225.933 1901.81 215.4 1907.94 201C1914.08 186.6 1920.88 166.733 1928.34 141.4C1938.74 104.6 1943.94 78.7329 1943.94 63.7996C1943.94 55.2663 1942.48 49.1329 1939.54 45.3996C1936.61 41.6663 1932.08 39.7996 1925.94 39.7996ZM2361.99 6.59963C2368.13 6.59963 2372.79 7.79963 2375.99 10.1996C2379.19 12.3329 2380.79 15.2662 2380.79 18.9996C2380.79 20.5996 2380.66 21.7996 2380.39 22.5996C2379.59 26.0663 2377.99 28.7329 2375.59 30.5996C2373.19 32.1996 2369.33 34.0663 2363.99 36.1996C2356.79 39.3996 2350.26 42.5996 2344.39 45.7996C2338.79 48.7329 2332.26 53.3996 2324.79 59.7996L2245.19 127.4L2283.99 221.8C2286.66 228.2 2289.59 233.133 2292.79 236.6C2296.26 240.067 2300.39 243.4 2305.19 246.6C2308.66 249.267 2311.06 251.4 2312.39 253C2313.73 254.333 2314.39 256.333 2314.39 259C2314.39 263.8 2312.79 267.4 2309.59 269.8C2306.39 271.933 2301.06 273 2293.59 273H2185.99C2179.06 273 2173.86 271.933 2170.39 269.8C2167.19 267.4 2165.59 264.333 2165.59 260.6C2165.59 259 2165.73 257.8 2165.99 257C2166.53 255.133 2167.46 253.533 2168.79 252.2C2170.13 250.6 2171.46 249.267 2172.79 248.2C2174.93 246.333 2176.53 244.6 2177.59 243C2178.66 241.4 2179.19 239.133 2179.19 236.2C2179.19 231.667 2177.73 225.8 2174.79 218.6L2160.79 184.6L2124.39 218.6C2116.93 225.267 2113.19 231.267 2113.19 236.6C2113.19 239 2113.73 241 2114.79 242.6C2115.86 244.2 2117.59 246.333 2119.99 249C2122.39 251.4 2124.13 253.667 2125.19 255.8C2126.53 257.933 2126.79 260.2 2125.99 262.6C2124.93 266.6 2122.66 269.4 2119.19 271C2115.99 272.333 2110.79 273 2103.59 273H2019.99C2013.86 273 2009.19 271.933 2005.99 269.8C2002.79 267.4 2001.19 264.333 2001.19 260.6C2001.19 259 2001.33 257.8 2001.59 257C2002.39 253.533 2003.99 251 2006.39 249.4C2008.79 247.533 2012.66 245.533 2017.99 243.4C2025.46 240.2 2031.99 237 2037.59 233.8C2043.46 230.6 2049.99 225.933 2057.19 219.8L2144.39 145L2108.39 57.7996C2105.73 51.3996 2102.66 46.4663 2099.19 42.9996C2095.99 39.5329 2091.99 36.1996 2087.19 32.9996C2083.73 30.3329 2081.33 28.3329 2079.99 26.9996C2078.66 25.3996 2077.99 23.2662 2077.99 20.5996C2077.99 15.7996 2079.59 12.3329 2082.79 10.1996C2085.99 7.79963 2091.33 6.59963 2098.79 6.59963H2206.39C2213.33 6.59963 2218.39 7.79963 2221.59 10.1996C2225.06 12.3329 2226.79 15.2662 2226.79 18.9996C2226.79 20.5996 2226.66 21.7996 2226.39 22.5996C2225.86 24.4663 2224.93 26.1996 2223.59 27.7996C2222.26 29.1329 2220.93 30.3329 2219.59 31.3996C2217.46 33.2663 2215.86 34.9996 2214.79 36.5996C2213.73 38.1996 2213.19 40.4663 2213.19 43.3996C2213.19 47.6663 2214.66 53.5329 2217.59 60.9996L2228.79 87.7996L2257.59 60.9996C2265.33 54.0662 2269.19 48.0662 2269.19 42.9996C2269.19 40.5996 2268.53 38.5996 2267.19 36.9996C2266.13 35.1329 2264.39 32.9996 2261.99 30.5996C2261.46 30.0663 2260.39 28.9996 2258.79 27.3996C2257.46 25.5329 2256.53 23.7996 2255.99 22.1996C2255.46 20.3329 2255.46 18.5996 2255.99 16.9996C2257.06 12.9996 2259.19 10.3329 2262.39 8.99962C2265.86 7.39962 2271.19 6.59963 2278.39 6.59963H2361.99ZM2571.83 115.4C2584.9 115.4 2591.43 120.467 2591.43 130.6C2591.43 131.667 2591.16 133.8 2590.63 137C2586.1 151.4 2576.1 158.6 2560.63 158.6H2499.43L2485.43 211C2483.56 218.467 2480.23 224.067 2475.43 227.8C2470.9 231.533 2465.56 233.4 2459.43 233.4C2453.3 233.4 2448.36 231.8 2444.63 228.6C2441.16 225.133 2439.43 220.467 2439.43 214.6C2439.43 211.667 2439.83 208.6 2440.63 205.4L2453.43 158.6H2394.23C2387.83 158.6 2382.9 157.4 2379.43 155C2376.23 152.333 2374.63 148.733 2374.63 144.2C2374.63 142.067 2375.03 139.667 2375.83 137C2377.7 130.067 2381.16 124.733 2386.23 121C2391.3 117.267 2397.7 115.4 2405.43 115.4H2465.03L2479.03 62.9996C2480.9 55.5329 2484.1 49.9329 2488.63 46.1996C2493.16 42.4663 2498.5 40.5996 2504.63 40.5996C2510.76 40.5996 2515.56 42.3329 2519.03 45.7996C2522.76 48.9996 2524.63 53.5329 2524.63 59.3996C2524.63 62.3329 2524.23 65.3996 2523.43 68.5996L2511.03 115.4H2571.83Z" fill="white" fill-opacity="0.04"/>
</g>
<defs>
<clipPath id="clip0_542_134">
<rect width="2591" height="155" fill="white"/>
</clipPath>
</defs>
</svg>
