<svg fill="none" height="155" viewBox="0 0 2591 155" width="2591" xmlns="http://www.w3.org/2000/svg" xmlns:xlink="http://www.w3.org/1999/xlink"><clipPath id="a"><path d="m0 0h2591v155h-2591z"/></clipPath><g clip-path="url(#a)"><path d="m260.478 225.8c-1.067 3.467-1.6 6.933-1.6 10.4 0 2.933.4 5.467 1.2 7.6.8 1.867 1.6 3.467 2.4 4.8 1.067 1.067 1.733 1.867 2 2.4 2.667 2.667 4 5.333 4 8 0 .533-.267 1.867-.8 4-1.067 3.733-3.467 6.4-7.2 8-3.467 1.333-8.933 2-16.4 2h-94.8c-5.6 0-10-.933-13.2-2.8-2.933-1.867-4.4-4.4-4.4-7.6 0-1.6.4-3.333 1.2-5.2.8-2.133 1.867-3.733 3.2-4.8 1.6-1.333 3.733-2.8 6.4-4.4 4.267-2.4 7.733-5.067 10.4-8s4.933-7.733 6.8-14.4l10.4-34.4h-62.4l-10.8003 22.8c-4.533 9.867-6.8 17.6-6.8 23.2 0 3.2.533 5.867 1.6 8 1.067 1.867 2.667 3.867 4.8 6 1.867 2.133 3.067 4 3.6003 5.6.8 1.333.933 3.2.4 5.6-1.0673 4-3.3333 6.8-6.8003 8.4-3.2 1.333-8.4 2-15.6 2h-59.6c-6.133 0-10.79998-1.067-13.99998-3.2-3.2-2.4-4.799986-5.467-4.799986-9.2 0-4.267 1.599986-7.6 4.799986-10 2.933-2.667 7.46698-5.467 13.59998-8.4 8-4 14.4-7.867 19.2-11.6 4.8-4 8.933-9.467 12.4-16.4l71.2003-147.6004c10.933-22.9334 23.733-39.4667 38.4-49.6 14.933-10.39998 34.533-15.59998 58.8-15.59998 27.2 0 48.267 5.6 63.2 16.79998 14.933 10.9333 22.4 26.2667 22.4 46 0 8.2667-1.333 16.8-4 25.6zm-78.4-74.4 21.2-70.4004c1.067-3.2 1.6-6.5333 1.6-10 0-5.0667-1.467-8.8-4.4-11.2-2.667-2.6667-6.533-4-11.6-4-6.4 0-11.867 1.8666-16.4 5.6-4.533 3.7333-9.067 10.4-13.6 20l-32.8 70.0004zm338.591 18.4c7.466 0 13.066 1.6 16.8 4.8 4 2.933 6 7.2 6 12.8 0 2.4-.4 5.067-1.2 8l-13.2 46.8c-3.467 11.467-8.4 19.467-14.8 24-6.134 4.533-15.334 6.8-27.6 6.8h-188c-5.6 0-9.867-.933-12.801-2.8-3.2-1.867-4.8-4.4-4.8-7.6 0-1.6.4-3.333 1.2-5.2.8-2.133 2.134-3.867 4-5.2 1.867-1.6 3.867-3.067 6.001-4.4 4.266-2.667 7.733-5.333 10.4-8 2.666-2.933 4.933-7.6 6.8-14l48.8-172.4004c1.066-3.4667 1.6-6.8 1.6-10 0-2.9333-.534-5.3333-1.6-7.2-.8-2.1333-2-4.5333-3.6-7.2-2.4-3.4667-3.6-6.2667-3.6-8.4 0-.8.266-2.2667.8-4.4 1.066-3.4667 3.333-5.8667 6.8-7.19998 3.733-1.6 9.333-2.39999 16.8-2.39999h94c5.6 0 9.866.93333 12.8 2.79998 3.2 1.59999 4.8 3.99999 4.8 7.19999 0 1.3333-.4 3.0667-1.2 5.2-.8 1.8667-2 3.6-3.6 5.2-1.334 1.3333-2.667 2.4-4 3.2-1.067.5333-1.867 1.0667-2.4 1.6-4.267 2.4-7.734 5.0667-10.4 8-2.667 2.9333-4.934 7.4667-6.8 13.6l-51.6 181.2004h24.8c6.133 0 11.333-1.067 15.6-3.2 4.533-2.133 9.2-6.133 14-12l27.6-32.8c5.066-5.867 9.866-10.133 14.4-12.8 4.8-2.667 10.533-4 17.2-4zm246.947-163.20037c28.266 0 50 6.13327 65.2 18.39997 15.466 12.2667 23.2 28.5333 23.2 48.8 0 8-1.2 16.4-3.6 25.2-7.467 26.6674-22.267 46.4004-44.4 59.2004-21.867 12.8-49.6 19.2-83.2 19.2h-41.2l-13.6 48.4c-.534 1.6-.8 3.733-.8 6.4 0 3.733.8 6.8 2.4 9.2 1.866 2.4 4.533 5.2 8 8.4 2.933 2.667 4.933 4.667 6 6 1.066 1.333 1.6 2.933 1.6 4.8 0 4.533-2.134 7.733-6.4 9.6-4.267 1.867-10.534 2.8-18.8 2.8h-100.4c-6.934 0-12.134-1.2-15.6-3.6-3.467-2.667-4.667-6.267-3.6-10.8.533-2.4 1.6-4.267 3.2-5.6 1.333-1.6 3.466-3.333 6.4-5.2 4.533-2.667 8.133-5.467 10.8-8.4 2.666-2.933 4.8-7.467 6.4-13.6l48.8-172.4004c1.066-3.4667 1.6-6.8 1.6-10 0-2.9333-.534-5.3333-1.6-7.2-.8-2.1333-2-4.5333-3.6-7.2-2.4-3.4667-3.6-6.2667-3.6-8.4 0-.8.266-2.2667.8-4.4 1.066-3.4667 3.333-5.8667 6.8-7.19998 3.733-1.6 9.333-2.39999 16.8-2.39999zm-10.4 85.19997c2.933-9.8667 4.4-18.5333 4.4-26 0-15.4667-7.2-23.2-21.6-23.2h-18l-28.4 98.8004h17.6c11.2 0 20.266-3.467 27.2-10.4 7.2-7.2 13.466-20.267 18.8-39.2004zm417.444-85.19997c5.6 0 9.87.93333 12.8 2.79998 3.2 1.86669 4.8 4.26669 4.8 7.19999 0 1.3333-.4 3.0667-1.2 5.2-.8 1.8667-2 3.6-3.6 5.2-1.33 1.3333-2.66 2.4-4 3.2-1.06.5333-1.86 1.0667-2.4 1.6-4.26 2.4-7.73 5.0667-10.4 8-2.66 2.9333-4.93 7.4667-6.8 13.6l-49.2 172.4004c-1.06 3.467-1.6 6.8-1.6 10s.4 5.733 1.2 7.6c1.07 1.867 2.54 4.267 4.4 7.2.27.267.94 1.333 2 3.2 1.34 1.6 2 3.333 2 5.2 0 .533-.26 1.867-.8 4-1.33 3.733-3.86 6.4-7.6 8-3.73 1.333-9.33 2-16.8 2h-94c-5.597 0-9.997-.933-13.197-2.8-2.934-1.867-4.4-4.4-4.4-7.6 0-1.6.4-3.333 1.2-5.2 1.066-2.133 2.533-3.867 4.4-5.2 1.866-1.6 3.733-2.933 5.6-4 4.267-2.4 7.737-5.067 10.397-8 2.67-3.2 4.94-8 6.8-14.4l19.2-66.8h-70.797l-19.2 66.8c-1.067 3.467-1.6 6.8-1.6 10s.4 5.733 1.2 7.6c1.066 1.867 2.533 4.267 4.4 7.2.266.267.933 1.333 2 3.2 1.333 1.6 2 3.333 2 5.2 0 .533-.267 1.867-.8 4-1.334 3.733-3.867 6.4-7.6 8-3.734 1.333-9.334 2-16.8 2h-94c-5.6 0-9.867-.933-12.801-2.8-3.2-1.867-4.8-4.4-4.8-7.6 0-1.6.4-3.333 1.2-5.2 1.067-2.133 2.534-3.867 4.4-5.2 1.867-1.6 3.734-2.933 5.601-4 4.266-2.4 7.733-5.067 10.4-8 2.666-3.2 4.933-8 6.8-14.4l49.2-172.4004c1.066-3.4667 1.6-6.8 1.6-10 0-2.9333-.534-5.3333-1.6-7.2-.8-2.1333-2-4.5333-3.6-7.2-1.067-1.3333-2-2.6667-2.8-4-.8-1.6-1.2-3.2-1.2-4.8 0-.5333.266-1.8667.8-4 1.066-3.4667 3.466-5.8667 7.2-7.19998 3.733-1.6 9.333-2.39999 16.8-2.39999h93.997c5.6 0 9.87.93333 12.8 2.79998 3.2 1.86669 4.8 4.26669 4.8 7.19999 0 1.3333-.4 3.0667-1.2 5.2-.8 1.8667-2 3.6-3.6 5.2-1.33 1.3333-2.66 2.4-4 3.2-1.06.5333-1.86 1.0667-2.4 1.6-4.26 2.4-7.73 5.0667-10.397 8s-4.934 7.4667-6.8 13.6l-18.8 65.6004h70.797l18.8-65.6004c1.07-3.4667 1.6-6.8 1.6-10 0-2.9333-.53-5.3333-1.6-7.2-.8-2.1333-2-4.5333-3.6-7.2-1.06-1.3333-2-2.6667-2.8-4-.8-1.6-1.2-3.2-1.2-4.8 0-.5333.27-1.8667.8-4 1.07-3.4667 3.47-5.8667 7.2-7.19998 3.74-1.6 9.34-2.39999 16.8-2.39999zm228.4 219.20037c-1.07 3.467-1.6 6.933-1.6 10.4 0 2.933.4 5.467 1.2 7.6.8 1.867 1.6 3.467 2.4 4.8 1.06 1.067 1.73 1.867 2 2.4 2.66 2.667 4 5.333 4 8 0 .533-.27 1.867-.8 4-1.07 3.733-3.47 6.4-7.2 8-3.47 1.333-8.94 2-16.4 2h-94.8c-5.6 0-10-.933-13.2-2.8-2.94-1.867-4.4-4.4-4.4-7.6 0-1.6.4-3.333 1.2-5.2.8-2.133 1.86-3.733 3.2-4.8 1.6-1.333 3.73-2.8 6.4-4.4 4.26-2.4 7.73-5.067 10.4-8 2.66-2.933 4.93-7.733 6.8-14.4l10.4-34.4h-62.4l-10.8 22.8c-4.54 9.867-6.8 17.6-6.8 23.2 0 3.2.53 5.867 1.6 8 1.06 1.867 2.66 3.867 4.8 6 1.86 2.133 3.06 4 3.6 5.6.8 1.333.93 3.2.4 5.6-1.07 4-3.34 6.8-6.8 8.4-3.2 1.333-8.4 2-15.6 2h-59.6c-6.14 0-10.8-1.067-14-3.2-3.2-2.4-4.8-5.467-4.8-9.2 0-4.267 1.6-7.6 4.8-10 2.93-2.667 7.46-5.467 13.6-8.4 8-4 14.4-7.867 19.2-11.6 4.8-4 8.93-9.467 12.4-16.4l71.2-147.6004c10.93-22.9334 23.73-39.4667 38.4-49.6 14.93-10.39998 34.53-15.59998 58.8-15.59998 27.2 0 48.26 5.6 63.2 16.79998 14.93 10.9333 22.4 26.2667 22.4 46 0 8.2667-1.34 16.8-4 25.6zm-78.4-74.4 21.2-70.4004c1.06-3.2 1.6-6.5333 1.6-10 0-5.0667-1.47-8.8-4.4-11.2-2.67-2.6667-6.54-4-11.6-4-6.4 0-11.87 1.8666-16.4 5.6-4.54 3.7333-9.07 10.4-13.6 20l-32.8 70.0004zm336.19-144.80037c18.13 0 33.86 2.79999 47.2 8.39997 13.6 5.3333 23.86 12.8 30.8 22.4 7.2 9.3333 10.8 20.1333 10.8 32.4 0 6.9333-.94 13.3333-2.8 19.2-7.74 26.9334-30 44.0004-66.8 51.2004 12.8 3.733 22.93 10 30.4 18.8 7.46 8.533 11.2 19.2 11.2 32 0 5.867-1.07 12.8-3.2 20.8-5.87 20.8-17.74 36.267-35.6 46.4-17.6 9.867-42.67 14.8-75.2 14.8h-166.4c-5.6 0-9.87-.933-12.8-2.8-3.2-1.867-4.8-4.4-4.8-7.6 0-1.6.4-3.333 1.2-5.2 1.06-2.933 2.8-5.2 5.2-6.8s3.86-2.533 4.4-2.8c4.26-2.667 7.73-5.333 10.4-8 2.66-2.933 4.93-7.6 6.8-14l48.8-172.4004c1.06-3.4667 1.6-6.8 1.6-10 0-2.9333-.54-5.3333-1.6-7.2-.8-2.1333-2-4.5333-3.6-7.2-2.4-3.4667-3.6-6.2667-3.6-8.4 0-.8.26-2.2667.8-4.4 1.06-3.4667 3.33-5.8667 6.8-7.19998 3.73-1.6 9.33-2.39999 16.8-2.39999zm-18 73.19997c1.86-5.8667 2.8-11.3333 2.8-16.4 0-13.8667-7.87-20.8-23.6-20.8h-18l-21.2 74.8004h17.6c11.2 0 20-2.667 26.4-8 6.66-5.6 12-15.4671 16-29.6004zm-29.2 117.6004c1.86-6.4 2.8-12.267 2.8-17.6 0-14.4-8.27-21.6-24.8-21.6h-20l-22.8 78.8h20.4c11.46 0 20.66-2.8 27.6-8.4 6.93-5.867 12.53-16.267 16.8-31.2zm319.49-196.800391c33.6 0 59.87 8.000001 78.8 23.999991 18.94 15.7333 28.4 38.5333 28.4 68.4 0 14.1334-2.13 29.3334-6.4 45.6004-8 29.867-20.4 55.2-37.2 76s-36.8 36.533-60 47.2-48.4 16-75.6 16c-33.33 0-59.46-7.867-78.4-23.6-18.93-16-28.4-38.933-28.4-68.8 0-13.6 2.27-29.2 6.8-46.8 7.74-29.6 19.87-54.6671 36.4-75.2004 16.8-20.8 36.67-36.4 59.6-46.8 23.2-10.66666 48.54-15.999991 76-15.999991zm-7.2 39.199991c-8 0-15.2 3.2-21.6 9.6s-12.8 16.9333-19.2 31.6c-6.13 14.4-12.8 34.5334-20 60.4004-10.66 37.333-16 63.067-16 77.2 0 8.267 1.47 14.267 4.4 18 2.94 3.733 7.6 5.6 14 5.6 8 0 15.2-3.2 21.6-9.6 6.4-6.667 12.67-17.2 18.8-31.6 6.14-14.4 12.94-34.267 20.4-59.6 10.4-36.8 15.6-62.6671 15.6-77.6004 0-8.5333-1.46-14.6667-4.4-18.4-2.93-3.7333-7.46-5.6-13.6-5.6zm436.05-33.19997c6.14 0 10.8 1.2 14 3.59997 3.2 2.1333 4.8 5.0666 4.8 8.8 0 1.6-.13 2.8-.4 3.6-.8 3.4667-2.4 6.1333-4.8 8-2.4 1.6-6.26 3.4667-11.6 5.6-7.2 3.2-13.73 6.4-19.6 9.6-5.6 2.9333-12.13 7.6-19.6 14l-79.6 67.6004 38.8 94.4c2.67 6.4 5.6 11.333 8.8 14.8 3.47 3.467 7.6 6.8 12.4 10 3.47 2.667 5.87 4.8 7.2 6.4 1.34 1.333 2 3.333 2 6 0 4.8-1.6 8.4-4.8 10.8-3.2 2.133-8.53 3.2-16 3.2h-107.6c-6.93 0-12.13-1.067-15.6-3.2-3.2-2.4-4.8-5.467-4.8-9.2 0-1.6.14-2.8.4-3.6.54-1.867 1.47-3.467 2.8-4.8 1.34-1.6 2.67-2.933 4-4 2.14-1.867 3.74-3.6 4.8-5.2 1.07-1.6 1.6-3.867 1.6-6.8 0-4.533-1.46-10.4-4.4-17.6l-14-34-36.4 34c-7.46 6.667-11.2 12.667-11.2 18 0 2.4.54 4.4 1.6 6 1.07 1.6 2.8 3.733 5.2 6.4 2.4 2.4 4.14 4.667 5.2 6.8 1.34 2.133 1.6 4.4.8 6.8-1.06 4-3.33 6.8-6.8 8.4-3.2 1.333-8.4 2-15.6 2h-83.6c-6.13 0-10.8-1.067-14-3.2-3.2-2.4-4.8-5.467-4.8-9.2 0-1.6.14-2.8.4-3.6.8-3.467 2.4-6 4.8-7.6 2.4-1.867 6.27-3.867 11.6-6 7.47-3.2 14-6.4 19.6-9.6 5.87-3.2 12.4-7.867 19.6-14l87.2-74.8-36-87.2004c-2.66-6.4-5.73-11.3333-9.2-14.8-3.2-3.4667-7.2-6.8-12-10-3.46-2.6667-5.86-4.6667-7.2-6-1.33-1.6-2-3.7334-2-6.4 0-4.8 1.6-8.2667 4.8-10.4 3.2-2.39997 8.54-3.59997 16-3.59997h107.6c6.94 0 12 1.2 15.2 3.59997 3.47 2.1333 5.2 5.0666 5.2 8.8 0 1.6-.13 2.8-.4 3.6-.53 1.8667-1.46 3.6-2.8 5.2-1.33 1.3333-2.66 2.5333-4 3.6-2.13 1.8667-3.73 3.6-4.8 5.2-1.06 1.6-1.6 3.8667-1.6 6.8 0 4.2667 1.47 10.1333 4.4 17.6l11.2 26.8 28.8-26.8c7.74-6.9334 11.6-12.9334 11.6-18 0-2.4-.66-4.4-2-6-1.06-1.8667-2.8-4-5.2-6.4-.53-.5333-1.6-1.6-3.2-3.2-1.33-1.8667-2.26-3.6-2.8-5.2-.53-1.8667-.53-3.6 0-5.2 1.07-4 3.2-6.6667 6.4-7.99998 3.47-1.6 8.8-2.39999 16-2.39999zm209.84 108.80037c13.07 0 19.6 5.067 19.6 15.2 0 1.067-.27 3.2-.8 6.4-4.53 14.4-14.53 21.6-30 21.6h-61.2l-14 52.4c-1.87 7.467-5.2 13.067-10 16.8-4.53 3.733-9.87 5.6-16 5.6s-11.07-1.6-14.8-4.8c-3.47-3.467-5.2-8.133-5.2-14 0-2.933.4-6 1.2-9.2l12.8-46.8h-59.2c-6.4 0-11.33-1.2-14.8-3.6-3.2-2.667-4.8-6.267-4.8-10.8 0-2.133.4-4.533 1.2-7.2 1.87-6.933 5.33-12.267 10.4-16s11.47-5.6 19.2-5.6h59.6l14-52.4004c1.87-7.4667 5.07-13.0667 9.6-16.8s9.87-5.6 16-5.6 10.93 1.7333 14.4 5.2c3.73 3.2 5.6 7.7333 5.6 13.6 0 2.9333-.4 6-1.2 9.2l-12.4 46.8004z" fill="#fff" fill-opacity=".04"/></g></svg>