<svg fill="none" height="48" viewBox="0 0 48 48" width="48" xmlns="http://www.w3.org/2000/svg" xmlns:xlink="http://www.w3.org/1999/xlink"><filter id="a" color-interpolation-filters="sRGB" filterUnits="userSpaceOnUse" height="48" width="48" x="0" y="0"><feFlood flood-opacity="0" result="BackgroundImageFix"/><feColorMatrix in="SourceAlpha" result="hardAlpha" type="matrix" values="0 0 0 0 0 0 0 0 0 0 0 0 0 0 0 0 0 0 127 0"/><feOffset dy="4"/><feGaussianBlur stdDeviation="2"/><feComposite in2="hardAlpha" operator="out"/><feColorMatrix type="matrix" values="0 0 0 0 0 0 0 0 0 0 0 0 0 0 0 0 0 0 0.08 0"/><feBlend in2="BackgroundImageFix" mode="normal" result="effect1_dropShadow_1201_609"/><feBlend in="SourceGraphic" in2="effect1_dropShadow_1201_609" mode="normal" result="shape"/></filter><mask id="b" height="24" maskUnits="userSpaceOnUse" width="24" x="12" y="8"><path d="m12 8h24v24h-24z" fill="#1c1b1f"/></mask><g filter="url(#a)"><circle cx="24" cy="20" fill="#fff" r="20"/></g><g mask="url(#b)"><path d="m23.9998 21.4-4.9 4.9c-.1833.1833-.4167.275-.7.275s-.5167-.0917-.7-.275-.275-.4167-.275-.7.0917-.5167.275-.7l4.9-4.9-4.9-4.9c-.1833-.1833-.275-.4167-.275-.7s.0917-.5167.275-.7.4167-.275.7-.275.5167.0917.7.275l4.9 4.9 4.9-4.9c.1833-.1833.4167-.275.7-.275s.5167.0917.7.275.275.4167.275.7-.0917.5167-.275.7l-4.9 4.9 4.9 4.9c.1833.1833.275.4167.275.7s-.0917.5167-.275.7-.4167.275-.7.275-.5167-.0917-.7-.275z" fill="#1c1b1f"/></g></svg>